<svg width="18" height="18" viewBox="0 0 18 18" fill="none" xmlns="http://www.w3.org/2000/svg">
<path fill-rule="evenodd" clip-rule="evenodd" d="M3.97077 1.20001C3.51625 1.20001 3.10073 1.45681 2.89746 1.86336L1.26329 5.13168C1.22164 5.215 1.19995 5.30686 1.19995 5.40001V15.6C1.19995 16.2628 1.73721 16.8 2.39995 16.8H15.6C16.2627 16.8 16.8 16.2628 16.8 15.6V5.40001C16.8 5.30686 16.7783 5.21499 16.7366 5.13168L15.1024 1.86339C14.8992 1.45685 14.4837 1.20005 14.0291 1.20005L8.99995 1.20003L3.97077 1.20001ZM3.97077 2.40001L8.39995 2.40003V4.80001H2.77077L3.97077 2.40001ZM9.59995 4.80001V2.40003L14.0291 2.40005L15.2291 4.80001H9.59995ZM8.99995 6.00001H15.6V15.6L2.39995 15.6V6.00001H8.99995ZM6.59995 8.40001C6.26858 8.40001 5.99995 8.66864 5.99995 9.00001C5.99995 9.33138 6.26858 9.60001 6.59995 9.60001H11.4C11.7313 9.60001 12 9.33138 12 9.00001C12 8.66864 11.7313 8.40001 11.4 8.40001H6.59995Z" fill="white"/>
</svg>
