<svg width="18" height="4" viewBox="0 0 18 4" fill="none" xmlns="http://www.w3.org/2000/svg">
<path d="M2.18459 3.926C1.76859 3.926 1.42192 3.782 1.14459 3.494C0.867256 3.206 0.72859 2.85933 0.72859 2.454C0.72859 2.02733 0.867256 1.67533 1.14459 1.398C1.42192 1.11 1.76859 0.966 2.18459 0.966C2.61126 0.966 2.95792 1.11 3.22459 1.398C3.50192 1.67533 3.64059 2.02733 3.64059 2.454C3.64059 2.85933 3.50192 3.206 3.22459 3.494C2.95792 3.782 2.61126 3.926 2.18459 3.926ZM8.90146 3.926C8.48546 3.926 8.1388 3.782 7.86146 3.494C7.58413 3.206 7.44546 2.85933 7.44546 2.454C7.44546 2.02733 7.58413 1.67533 7.86146 1.398C8.1388 1.11 8.48546 0.966 8.90146 0.966C9.32813 0.966 9.6748 1.11 9.94146 1.398C10.2188 1.67533 10.3575 2.02733 10.3575 2.454C10.3575 2.85933 10.2188 3.206 9.94146 3.494C9.6748 3.782 9.32813 3.926 8.90146 3.926ZM15.6183 3.926C15.2023 3.926 14.8557 3.782 14.5783 3.494C14.301 3.206 14.1623 2.85933 14.1623 2.454C14.1623 2.02733 14.301 1.67533 14.5783 1.398C14.8557 1.11 15.2023 0.966 15.6183 0.966C16.045 0.966 16.3917 1.11 16.6583 1.398C16.9357 1.67533 17.0743 2.02733 17.0743 2.454C17.0743 2.85933 16.9357 3.206 16.6583 3.494C16.3917 3.782 16.045 3.926 15.6183 3.926Z" fill="black"/>
</svg>
