<svg width="18" height="18" viewBox="0 0 18 18" fill="none" xmlns="http://www.w3.org/2000/svg">
<path fill-rule="evenodd" clip-rule="evenodd" d="M8.49501 0.266716C8.7752 -0.00890858 9.22466 -0.00890858 9.50485 0.266716L17.6048 8.23473C17.8883 8.51359 17.8921 8.96945 17.6132 9.25293C17.3344 9.53641 16.8785 9.54015 16.595 9.26129L15.5999 8.28243V15C15.5999 15.3313 15.3313 15.6 14.9999 15.6H2.99993C2.66856 15.6 2.39993 15.3313 2.39993 15V8.28243L1.40485 9.26129C1.12137 9.54015 0.665509 9.53641 0.38665 9.25293C0.107792 8.96945 0.111536 8.51359 0.395014 8.23473L8.49501 0.266716ZM8.99993 1.78997L14.3999 7.10198V14.4H11.9999V10.2C11.9999 9.8686 11.7313 9.59997 11.3999 9.59997H7.79993C7.46856 9.59997 7.19993 9.8686 7.19993 10.2V14.4H3.59993V7.10198L8.99993 1.78997ZM8.39993 14.4H10.7999V10.8H8.39993V14.4Z" fill="white"/>
</svg>
