<svg width="18" height="18" viewBox="0 0 18 18" fill="none" xmlns="http://www.w3.org/2000/svg">
<path fill-rule="evenodd" clip-rule="evenodd" d="M8.99964 1.05225C4.61042 1.05225 1.05225 4.61042 1.05225 8.99964C1.05225 13.3888 4.61042 16.947 8.99964 16.947C13.3888 16.947 16.947 13.3888 16.947 8.99964C16.947 4.61042 13.3888 1.05225 8.99964 1.05225ZM2.19225 8.99964C2.19225 5.24003 5.24003 2.19225 8.99964 2.19225C12.7592 2.19225 15.807 5.24003 15.807 8.99964C15.807 12.7592 12.7592 15.807 8.99964 15.807C5.24003 15.807 2.19225 12.7592 2.19225 8.99964ZM9.89979 5.40001C9.89979 5.89706 9.49684 6.3 8.99979 6.3C8.50273 6.3 8.09979 5.89706 8.09979 5.40001C8.09979 4.90295 8.50273 4.50001 8.99979 4.50001C9.49684 4.50001 9.89979 4.90295 9.89979 5.40001ZM7.19979 7.20001H7.79979H8.99979C9.33116 7.20001 9.59979 7.46863 9.59979 7.8V12H10.1998H10.7998V13.2H10.1998H8.99979H7.79979H7.19979V12H7.79979H8.39979V8.40001H7.79979H7.19979V7.20001Z" fill="white"/>
</svg>
