<svg width="18" height="18" viewBox="0 0 18 18" fill="none" xmlns="http://www.w3.org/2000/svg">
<path fill-rule="evenodd" clip-rule="evenodd" d="M9.30538 0.983468C9.1171 0.87221 8.88319 0.87221 8.69491 0.983468L2.09491 4.88347C1.91222 4.99142 1.80014 5.18783 1.80014 5.40002C1.80014 5.61222 1.91222 5.80863 2.09491 5.91658L8.69491 9.81658C8.88319 9.92784 9.1171 9.92784 9.30538 9.81658L15.9054 5.91658C16.0881 5.80863 16.2001 5.61222 16.2001 5.40002C16.2001 5.18783 16.0881 4.99142 15.9054 4.88347L9.30538 0.983468ZM9.00014 8.6031L3.57955 5.40002L9.00014 2.19695L14.4207 5.40002L9.00014 8.6031ZM1.88359 8.99479C2.05217 8.7095 2.42009 8.61489 2.70538 8.78347L9.00014 12.5031L15.2949 8.78347C15.5802 8.61489 15.9481 8.7095 16.1167 8.99479C16.2853 9.28007 16.1907 9.648 15.9054 9.81658L9.30538 13.7166C9.1171 13.8278 8.88319 13.8278 8.69491 13.7166L2.09491 9.81658C1.80962 9.648 1.71501 9.28007 1.88359 8.99479ZM1.88359 12.5948C2.05217 12.3095 2.42009 12.2149 2.70538 12.3835L9.00014 16.1031L15.2949 12.3835C15.5802 12.2149 15.9481 12.3095 16.1167 12.5948C16.2853 12.8801 16.1907 13.248 15.9054 13.4166L9.30538 17.3166C9.1171 17.4278 8.88319 17.4278 8.69491 17.3166L2.09491 13.4166C1.80962 13.248 1.71501 12.8801 1.88359 12.5948Z" fill="white"/>
</svg>
