<svg width="18" height="18" viewBox="0 0 18 18" fill="none" xmlns="http://www.w3.org/2000/svg">
<path fill-rule="evenodd" clip-rule="evenodd" d="M8.99822 0C7.59074 0 6.43319 0.467316 5.68494 1.43233C5.08484 2.20627 4.7999 3.2189 4.7999 4.3599H5.9999C5.9999 3.41175 6.23619 2.67974 6.63327 2.16764C7.09928 1.56662 7.86172 1.2 8.99822 1.2C10.0281 1.2 10.7559 1.51802 11.2301 2.02348C11.7094 2.53453 11.9999 3.31252 11.9999 4.36322V7.2H3.5999C2.93716 7.2 2.3999 7.73726 2.3999 8.4V15.6C2.3999 16.2627 2.93716 16.8 3.5999 16.8H14.3999C15.0626 16.8 15.5999 16.2627 15.5999 15.6V8.4C15.5999 7.73726 15.0626 7.2 14.3999 7.2H13.1999V4.36322C13.1999 3.09762 12.8477 1.994 12.1053 1.20252C11.3576 0.405445 10.2846 0 8.99822 0ZM3.5999 8.4L14.3999 8.4V15.6H3.5999V8.4Z" fill="black"/>
</svg>
