<svg width="186" height="56" viewBox="0 0 186 56" fill="none" xmlns="http://www.w3.org/2000/svg">
<path fill-rule="evenodd" clip-rule="evenodd" d="M27.8791 55.8791C43.2763 55.8791 55.7582 43.3972 55.7582 28C55.7582 12.6028 43.2763 0.120886 27.8791 0.120886C12.4819 0.120886 0 12.6028 0 28C0 43.3972 12.4819 55.8791 27.8791 55.8791ZM31.6405 22.5015C28.6233 17.1755 27.8791 6.09078 27.8791 6.09078C27.8791 6.09078 27.135 17.1755 24.1177 22.5015C22.4721 25.4062 18.4486 28 18.4486 28C18.4486 28 22.4721 30.5937 24.1177 33.4985C27.135 38.8244 27.8791 49.9092 27.8791 49.9092C27.8791 49.9092 28.6233 38.8244 31.6405 33.4985C33.2861 30.5937 37.3096 28 37.3096 28C37.3096 28 33.2861 25.4062 31.6405 22.5015Z" fill="black"/>
<path d="M68.3822 14.5504C68.6702 15.0304 68.8142 15.7696 68.8142 16.768C68.8142 17.7664 68.4014 20.0704 67.5758 23.68C66.7694 27.2896 66.3662 29.584 66.3662 30.5632C66.3662 31.5232 66.7214 32.0032 67.4318 32.0032C68.6606 32.0032 70.043 31.4752 71.579 30.4192C71.6942 29.728 71.9726 28.336 72.4142 26.2432C73.451 21.4048 73.9886 18.0736 74.027 16.2496C74.027 15.9232 74.0078 15.6544 73.9694 15.4432C75.5054 14.848 77.051 14.5504 78.6062 14.5504C78.6638 14.6656 78.6926 14.9536 78.6926 15.4144C78.6926 16.4704 78.2222 19.1872 77.2814 23.5648C76.3598 27.9424 75.899 30.7264 75.899 31.9168C75.899 32.4352 75.9854 32.6944 76.1582 32.6944C76.331 32.6944 76.9166 32.4448 77.915 31.9456L78.4334 33.0112C76.7246 34.5664 75.2078 35.344 73.883 35.344C73.1534 35.344 72.5486 35.1136 72.0686 34.6528C71.5886 34.192 71.339 33.5392 71.3198 32.6944C68.7278 34.4608 66.5774 35.344 64.8686 35.344C63.9278 35.344 63.1694 35.0464 62.5934 34.4512C62.0366 33.8368 61.7582 33.0016 61.7582 31.9456C61.7582 30.8896 62.1518 28.6816 62.939 25.3216C63.7262 21.9424 64.1198 19.5136 64.1198 18.0352C64.1198 17.728 64.0238 17.3632 63.8318 16.9408C63.6398 16.4992 63.4478 16.144 63.2558 15.8752L62.9678 15.472L63.0254 15.04C64.0814 14.7136 65.867 14.5504 68.3822 14.5504Z" fill="#394846"/>
<path d="M82.6949 22.24C83.5397 22.24 84.1637 22.4128 84.5669 22.7584C84.9893 23.104 85.2005 23.8144 85.2005 24.8896C85.2005 25.4656 85.0277 26.6464 84.6821 28.432C84.3365 30.1984 84.1637 31.2736 84.1637 31.6576C84.1637 32.4256 84.3173 32.8096 84.6245 32.8096C85.3541 32.8096 86.1509 32.272 87.0149 31.1968C87.8981 30.1024 88.3589 29.1904 88.3973 28.4608L86.4389 26.272C86.5157 25.4464 86.7173 24.6976 87.0437 24.0256C87.3701 23.3536 87.6773 22.8832 87.9653 22.6144L88.3685 22.24C89.1941 22.24 89.8181 22.4608 90.2405 22.9024C90.6629 23.344 90.8741 23.8624 90.8741 24.4576C90.8741 25.9744 90.4997 27.5776 89.7509 29.2672C89.0021 30.9568 88.0037 32.3968 86.7557 33.5872C85.5077 34.7584 84.2405 35.344 82.9541 35.344C82.1477 35.344 81.5237 35.0944 81.0821 34.5952C80.6597 34.096 80.4485 33.4432 80.4485 32.6368C80.4485 31.8112 80.5061 30.7072 80.6213 29.3248C80.7557 27.9424 80.8229 26.5696 80.8229 25.2064C80.8229 24.8992 80.7077 24.5344 80.4773 24.112C80.2661 23.6896 80.0453 23.3536 79.8149 23.104L79.9013 22.7584C80.9381 22.4128 81.8693 22.24 82.6949 22.24Z" fill="#394846"/>
<path d="M91.1205 30.016C91.1205 27.616 91.8405 25.7248 93.2805 24.3424C94.7397 22.9408 96.3909 22.24 98.2341 22.24C99.3669 22.24 100.298 22.5184 101.028 23.0752C101.757 23.632 102.122 24.3808 102.122 25.3216C102.122 26.2432 101.882 27.0208 101.402 27.6544C100.941 28.288 100.375 28.7776 99.7029 29.1232C98.3397 29.7952 97.0917 30.2176 95.9589 30.3904L95.2677 30.4768C95.4021 32.2816 96.1413 33.184 97.4853 33.184C97.9461 33.184 98.4357 33.0688 98.9541 32.8384C99.4725 32.608 99.8757 32.3776 100.164 32.1472L100.596 31.8016L101.287 32.7232C101.133 32.9344 100.826 33.2128 100.365 33.5584C99.9045 33.904 99.4725 34.192 99.0693 34.4224C97.9557 35.0368 96.7365 35.344 95.4117 35.344C94.0869 35.344 93.0405 34.8736 92.2725 33.9328C91.5045 32.992 91.1205 31.6864 91.1205 30.016ZM95.2389 29.0656C96.2181 28.8928 96.9957 28.48 97.5717 27.8272C98.1477 27.1744 98.4357 26.3296 98.4357 25.2928C98.4357 24.256 98.1285 23.7376 97.5141 23.7376C96.7845 23.7376 96.2181 24.3616 95.8149 25.6096C95.4309 26.8384 95.2389 27.9904 95.2389 29.0656Z" fill="#394846"/>
<path d="M103.315 35.0848H103.113C103.075 34.9312 103.056 34.5856 103.056 34.048C103.056 33.4912 103.315 32.0128 103.833 29.6128C104.352 27.2128 104.611 25.84 104.611 25.4944C104.611 24.8992 104.342 24.2464 103.804 23.536L103.545 23.1904L103.574 22.816C104.611 22.528 106.272 22.384 108.556 22.384C108.787 22.8832 108.902 23.584 108.902 24.4864C109.113 24.1408 109.555 23.68 110.227 23.104C110.899 22.528 111.59 22.24 112.3 22.24C113.337 22.24 113.856 23.1424 113.856 24.9472C113.76 25.0624 113.625 25.216 113.452 25.408C113.299 25.5808 112.972 25.8304 112.473 26.1568C111.993 26.4832 111.523 26.6848 111.062 26.7616C111.043 26.7616 110.88 26.5024 110.572 25.984C110.265 25.4656 110.035 25.2064 109.881 25.2064C109.401 25.3792 108.979 25.6672 108.614 26.0704C107.731 30.0448 107.289 32.6176 107.289 33.7888C107.289 34.2112 107.299 34.5088 107.318 34.6816C106.646 34.9504 105.312 35.0848 103.315 35.0848Z" fill="#394846"/>
<path d="M116.921 38.1088C116.288 38.4928 115.971 38.8672 115.971 39.232C115.971 39.5968 116.172 39.7792 116.576 39.7792C116.998 39.7792 117.468 39.5776 117.987 39.1744C118.505 38.7904 118.937 38.1568 119.283 37.2736C118.361 37.4464 117.574 37.7248 116.921 38.1088ZM115.539 35.1136C113.926 35.1136 113.12 34.2304 113.12 32.464C113.12 32.0416 113.312 30.8224 113.696 28.8064C114.08 26.7904 114.272 25.1104 114.272 23.7664C114.272 23.4784 114.233 23.2096 114.156 22.96C115.193 22.5568 116.614 22.3552 118.419 22.3552C118.515 22.624 118.563 23.0848 118.563 23.7376C118.563 24.3904 118.352 25.744 117.929 27.7984C117.507 29.8528 117.296 31.1776 117.296 31.7728C117.296 32.368 117.545 32.6656 118.044 32.6656C118.64 32.6656 119.36 32.368 120.204 31.7728C120.3 30.64 120.684 27.6544 121.356 22.816C122.028 22.5472 123.238 22.4128 124.985 22.4128H125.532C125.168 23.8528 124.812 25.9264 124.467 28.6336C124.121 31.3408 123.843 33.2224 123.632 34.2784C123.228 36.3904 122.48 38.1088 121.385 39.4336C120.31 40.7776 118.899 41.4496 117.152 41.4496C116.46 41.4496 115.827 41.2672 115.251 40.9024C114.694 40.5376 114.416 40.0672 114.416 39.4912C114.416 38.7232 114.886 38.0224 115.827 37.3888C116.768 36.7552 118.035 36.2656 119.628 35.92C119.801 35.0752 119.936 34.2592 120.032 33.472C118.476 34.5664 116.979 35.1136 115.539 35.1136Z" fill="#394846"/>
<path d="M134.58 35.344C133.467 35.344 132.315 35.1616 131.124 34.7968C130.126 35.0464 129.252 35.1712 128.504 35.1712C127.774 35.1712 127.275 35.152 127.006 35.1136C127.14 33.9808 127.716 31.1104 128.734 26.5024C129.771 21.8752 130.289 19.2544 130.289 18.64C130.289 18.0064 130.155 17.4592 129.886 16.9984C129.636 16.5376 129.387 16.2016 129.137 15.9904L128.734 15.6736L128.82 15.2416C129.32 15.1072 130.337 14.9632 131.873 14.8096C133.428 14.6368 134.782 14.5504 135.934 14.5504C138.603 14.5504 140.619 15.1456 141.982 16.336C143.364 17.5072 144.056 19.4176 144.056 22.0672C144.056 24.2368 143.691 26.32 142.961 28.3168C142.251 30.2944 141.156 31.9648 139.678 33.328C138.2 34.672 136.5 35.344 134.58 35.344ZM136.625 16.3648C136.126 16.3648 135.56 16.4224 134.926 16.5376C134.734 18.5728 134.187 21.5488 133.284 25.4656C132.401 29.3632 131.883 31.8496 131.729 32.9248C132.19 33.1552 132.824 33.2704 133.63 33.2704C134.436 33.2704 135.195 32.9536 135.905 32.32C136.635 31.6672 137.22 30.8608 137.662 29.9008C138.104 28.9408 138.488 27.8656 138.814 26.6752C139.371 24.544 139.649 22.6048 139.649 20.8576C139.649 19.1104 139.419 17.9296 138.958 17.3152C138.497 16.6816 137.72 16.3648 136.625 16.3648Z" fill="#394846"/>
<path d="M144.938 30.016C144.938 27.616 145.658 25.7248 147.098 24.3424C148.557 22.9408 150.208 22.24 152.051 22.24C153.184 22.24 154.115 22.5184 154.845 23.0752C155.574 23.632 155.939 24.3808 155.939 25.3216C155.939 26.2432 155.699 27.0208 155.219 27.6544C154.758 28.288 154.192 28.7776 153.52 29.1232C152.157 29.7952 150.909 30.2176 149.776 30.3904L149.085 30.4768C149.219 32.2816 149.958 33.184 151.302 33.184C151.763 33.184 152.253 33.0688 152.771 32.8384C153.29 32.608 153.693 32.3776 153.981 32.1472L154.413 31.8016L155.104 32.7232C154.95 32.9344 154.643 33.2128 154.182 33.5584C153.722 33.904 153.29 34.192 152.886 34.4224C151.773 35.0368 150.554 35.344 149.229 35.344C147.904 35.344 146.858 34.8736 146.09 33.9328C145.322 32.992 144.938 31.6864 144.938 30.016ZM149.056 29.0656C150.035 28.8928 150.813 28.48 151.389 27.8272C151.965 27.1744 152.253 26.3296 152.253 25.2928C152.253 24.256 151.946 23.7376 151.331 23.7376C150.602 23.7376 150.035 24.3616 149.632 25.6096C149.248 26.8384 149.056 27.9904 149.056 29.0656Z" fill="#394846"/>
<path d="M157.132 35.0848H156.93C156.892 34.9312 156.873 34.5856 156.873 34.048C156.873 33.4912 157.132 32.0128 157.65 29.6128C158.169 27.2128 158.428 25.84 158.428 25.4944C158.428 24.8992 158.159 24.2464 157.622 23.536L157.362 23.1904L157.391 22.816C158.428 22.528 160.089 22.384 162.374 22.384C162.604 22.8832 162.719 23.584 162.719 24.4864C162.93 24.1408 163.372 23.68 164.044 23.104C164.716 22.528 165.407 22.24 166.118 22.24C167.154 22.24 167.673 23.1424 167.673 24.9472C167.577 25.0624 167.442 25.216 167.27 25.408C167.116 25.5808 166.79 25.8304 166.29 26.1568C165.81 26.4832 165.34 26.6848 164.879 26.7616C164.86 26.7616 164.697 26.5024 164.39 25.984C164.082 25.4656 163.852 25.2064 163.698 25.2064C163.218 25.3792 162.796 25.6672 162.431 26.0704C161.548 30.0448 161.106 32.6176 161.106 33.7888C161.106 34.2112 161.116 34.5088 161.135 34.6816C160.463 34.9504 159.129 35.0848 157.132 35.0848Z" fill="#394846"/>
<path d="M173.008 24.0256C173.008 24.832 172.749 26.224 172.231 28.2016C171.712 30.16 171.453 31.4464 171.453 32.0608C171.453 32.656 171.539 32.9536 171.712 32.9536C171.827 32.9536 172.269 32.7712 173.037 32.4064L173.383 32.2336L173.872 33.2416C173.699 33.3952 173.469 33.5872 173.181 33.8176C172.893 34.048 172.355 34.3648 171.568 34.768C170.781 35.152 170.051 35.344 169.379 35.344C168.707 35.344 168.179 35.1424 167.795 34.7392C167.411 34.3168 167.219 33.76 167.219 33.0688C167.219 32.3584 167.459 31.1104 167.939 29.3248C168.419 27.52 168.659 26.3488 168.659 25.8112C168.659 25.0048 168.41 24.2464 167.911 23.536L167.651 23.1904L167.68 22.816C168.698 22.528 170.349 22.384 172.634 22.384C172.883 22.672 173.008 23.2192 173.008 24.0256ZM169.725 19.2448C169.341 18.8608 169.149 18.352 169.149 17.7184C169.149 17.0848 169.408 16.528 169.927 16.048C170.464 15.568 171.079 15.328 171.77 15.328C172.461 15.328 172.999 15.52 173.383 15.904C173.767 16.288 173.959 16.7968 173.959 17.4304C173.959 18.0448 173.68 18.592 173.123 19.072C172.586 19.552 171.981 19.792 171.309 19.792C170.637 19.792 170.109 19.6096 169.725 19.2448Z" fill="#394846"/>
<path d="M177.687 22.24C178.532 22.24 179.156 22.4128 179.559 22.7584C179.982 23.104 180.193 23.8144 180.193 24.8896C180.193 25.4656 180.02 26.6464 179.674 28.432C179.329 30.1984 179.156 31.2736 179.156 31.6576C179.156 32.4256 179.31 32.8096 179.617 32.8096C180.346 32.8096 181.143 32.272 182.007 31.1968C182.89 30.1024 183.351 29.1904 183.39 28.4608L181.431 26.272C181.508 25.4464 181.71 24.6976 182.036 24.0256C182.362 23.3536 182.67 22.8832 182.958 22.6144L183.361 22.24C184.186 22.24 184.81 22.4608 185.233 22.9024C185.655 23.344 185.866 23.8624 185.866 24.4576C185.866 25.9744 185.492 27.5776 184.743 29.2672C183.994 30.9568 182.996 32.3968 181.748 33.5872C180.5 34.7584 179.233 35.344 177.946 35.344C177.14 35.344 176.516 35.0944 176.074 34.5952C175.652 34.096 175.441 33.4432 175.441 32.6368C175.441 31.8112 175.498 30.7072 175.614 29.3248C175.748 27.9424 175.815 26.5696 175.815 25.2064C175.815 24.8992 175.7 24.5344 175.47 24.112C175.258 23.6896 175.038 23.3536 174.807 23.104L174.894 22.7584C175.93 22.4128 176.862 22.24 177.687 22.24Z" fill="#394846"/>
</svg>
