<svg width="10" height="9" viewBox="0 0 10 9" fill="none" xmlns="http://www.w3.org/2000/svg">
<path d="M8.66488 5.32H5.82488V8.15C5.82488 8.61 5.45488 8.98 4.99488 8.98C4.53488 8.98 4.16488 8.61 4.16488 8.15V5.32H1.33488C0.874883 5.31 0.504883 4.94 0.504883 4.48C0.504883 4.259 0.594883 4.05 0.744883 3.89C0.904883 3.74 1.11488 3.65 1.33488 3.65H4.16488V0.83C4.16488 0.37 4.53488 0 4.99488 0C5.45488 0 5.82488 0.37 5.82488 0.83V3.65H8.66488C9.12488 3.65 9.49488 4.02 9.49488 4.48C9.49488 4.94 9.12488 5.31 8.66488 5.32" fill="#3A3A3A"/>
</svg>
