<svg width="10" height="8" viewBox="0 0 10 8" fill="none" xmlns="http://www.w3.org/2000/svg">
<path d="M2.47859 0.439999C3.03059 0.439999 3.49859 0.655999 3.88259 1.088C4.26659 1.496 4.45859 2.06 4.45859 2.78C4.45859 3.836 4.29059 4.688 3.95459 5.336C3.64259 5.984 3.29459 6.5 2.91059 6.884C2.47859 7.316 1.97459 7.64 1.39859 7.856L1.03859 7.28C1.44659 7.088 1.80659 6.86 2.11859 6.596C2.38259 6.38 2.62259 6.104 2.83859 5.768C3.07859 5.432 3.19859 5.036 3.19859 4.58C3.19859 4.484 3.18659 4.412 3.16259 4.364C3.13859 4.292 3.11459 4.232 3.09059 4.184L3.01859 4.04C2.97059 4.088 2.89859 4.124 2.80259 4.148C2.61059 4.196 2.44259 4.22 2.29859 4.22C1.74659 4.22 1.30259 4.064 0.966594 3.752C0.654594 3.416 0.498594 2.972 0.498594 2.42C0.498594 1.868 0.690594 1.4 1.07459 1.016C1.45859 0.631999 1.92659 0.439999 2.47859 0.439999ZM7.51859 0.439999C8.07059 0.439999 8.53859 0.655999 8.92259 1.088C9.30659 1.496 9.49859 2.06 9.49859 2.78C9.49859 3.836 9.33059 4.688 8.99459 5.336C8.68259 5.984 8.33459 6.5 7.95059 6.884C7.51859 7.316 7.01459 7.64 6.43859 7.856L6.07859 7.28C6.48659 7.088 6.84659 6.86 7.15859 6.596C7.42259 6.38 7.66259 6.104 7.87859 5.768C8.11859 5.432 8.23859 5.036 8.23859 4.58C8.23859 4.484 8.22659 4.412 8.20259 4.364C8.17859 4.292 8.15459 4.232 8.13059 4.184L8.05859 4.04C8.01059 4.088 7.93859 4.124 7.84259 4.148C7.65059 4.196 7.48259 4.22 7.33859 4.22C6.78659 4.22 6.34259 4.064 6.00659 3.752C5.69459 3.416 5.53859 2.972 5.53859 2.42C5.53859 1.868 5.73059 1.4 6.11459 1.016C6.49859 0.631999 6.96659 0.439999 7.51859 0.439999Z" fill="white"/>
</svg>
