<svg width="10" height="8" viewBox="0 0 10 8" fill="none" xmlns="http://www.w3.org/2000/svg">
<path d="M7.51859 7.856C6.96659 7.856 6.49859 7.652 6.11459 7.244C5.73059 6.812 5.53859 6.236 5.53859 5.516C5.53859 4.484 5.69459 3.644 6.00659 2.996C6.31859 2.324 6.66659 1.796 7.05059 1.412C7.48259 0.979999 7.99859 0.655999 8.59859 0.439999L8.95859 1.016C8.55059 1.208 8.19059 1.436 7.87859 1.7C7.61459 1.94 7.36259 2.228 7.12259 2.564C6.90659 2.876 6.79859 3.26 6.79859 3.716C6.79859 3.884 6.82259 4.016 6.87059 4.112C6.89459 4.184 6.93059 4.232 6.97859 4.256C7.02659 4.232 7.09859 4.208 7.19459 4.184C7.26659 4.16 7.33859 4.136 7.41059 4.112C7.50659 4.088 7.60259 4.076 7.69859 4.076C8.25059 4.076 8.68259 4.244 8.99459 4.58C9.33059 4.892 9.49859 5.324 9.49859 5.876C9.49859 6.428 9.30659 6.896 8.92259 7.28C8.53859 7.664 8.07059 7.856 7.51859 7.856ZM2.47859 7.856C1.92659 7.856 1.45859 7.652 1.07459 7.244C0.690594 6.812 0.498594 6.236 0.498594 5.516C0.498594 4.484 0.654594 3.644 0.966594 2.996C1.27859 2.324 1.62659 1.796 2.01059 1.412C2.44259 0.979999 2.95859 0.655999 3.55859 0.439999L3.91859 1.016C3.51059 1.208 3.15059 1.436 2.83859 1.7C2.57459 1.94 2.32259 2.228 2.08259 2.564C1.86659 2.876 1.75859 3.26 1.75859 3.716C1.75859 3.884 1.78259 4.016 1.83059 4.112C1.85459 4.184 1.89059 4.232 1.93859 4.256C1.98659 4.232 2.05859 4.208 2.15459 4.184C2.22659 4.16 2.29859 4.136 2.37059 4.112C2.46659 4.088 2.56259 4.076 2.65859 4.076C3.21059 4.076 3.64259 4.244 3.95459 4.58C4.29059 4.892 4.45859 5.324 4.45859 5.876C4.45859 6.428 4.26659 6.896 3.88259 7.28C3.49859 7.664 3.03059 7.856 2.47859 7.856Z" fill="white"/>
</svg>
