<svg width="18" height="18" viewBox="0 0 18 18" fill="none" xmlns="http://www.w3.org/2000/svg">
<path fill-rule="evenodd" clip-rule="evenodd" d="M8.22438 4.62429L9.18436 3.66425C9.95782 2.89083 11.3144 2.35409 12.6624 2.16153C13.3268 2.06662 13.955 2.06072 14.4678 2.13751C14.9986 2.217 15.3239 2.37238 15.4758 2.52431C15.6278 2.67624 15.7832 3.00153 15.8627 3.53231C15.9394 4.04505 15.9335 4.67329 15.8386 5.33764C15.6461 6.68569 15.1093 8.04228 14.3358 8.81577L9.00009 14.1515L7.62434 12.7758C7.39003 12.5415 7.01013 12.5415 6.77581 12.7758C6.5415 13.0101 6.5415 13.39 6.77582 13.6243L8.57583 15.4243C8.81015 15.6586 9.19004 15.6586 9.42436 15.4243L10.081 14.7677L11.4856 17.1087C11.5806 17.2672 11.7434 17.373 11.9268 17.3955C12.1102 17.4181 12.2937 17.3549 12.4243 17.2243L14.8243 14.8243C14.9579 14.6908 15.0208 14.5021 14.9941 14.3152L14.4365 10.4122L15.1844 9.66428C16.2109 8.63772 16.8141 6.99429 17.0266 5.50734C17.1342 4.75419 17.147 4.00619 17.0494 3.35458C16.9545 2.721 16.7424 2.09381 16.3243 1.67576C15.9063 1.25773 15.2791 1.04562 14.6455 0.950741C13.9939 0.853158 13.2459 0.865998 12.4927 0.973584C11.0058 1.18599 9.36237 1.78922 8.33583 2.81573L7.58796 3.56364L3.68495 3.00607C3.498 2.97936 3.30938 3.04223 3.17584 3.17577L0.775838 5.57577C0.645192 5.70642 0.582023 5.88997 0.604598 6.07335C0.627173 6.25672 0.732974 6.41947 0.891406 6.51453L3.23247 7.91916L2.57586 8.57577C2.46333 8.68829 2.40012 8.8409 2.40012 9.00003C2.40012 9.15916 2.46333 9.31177 2.57585 9.4243L4.37586 11.2243C4.61017 11.4586 4.99007 11.4586 5.22439 11.2243C5.4587 10.99 5.4587 10.6101 5.22439 10.3758L3.84865 9.00003L4.62439 8.2243L8.22438 4.62429ZM12.1192 15.8324L10.9556 13.893L13.3758 11.4728L13.7637 14.1879L12.1192 15.8324ZM4.10711 7.04452L6.52731 4.6243L3.81223 4.23643L2.16776 5.88091L4.10711 7.04452ZM2.82437 12.4243C3.05868 12.19 3.05868 11.8101 2.82437 11.5758C2.59005 11.3414 2.21015 11.3414 1.97584 11.5758L0.775838 12.7758C0.541524 13.0101 0.541524 13.39 0.775838 13.6243C1.01015 13.8586 1.39005 13.8586 1.62437 13.6243L2.82437 12.4243ZM4.62439 14.2243C4.85871 13.99 4.85871 13.6101 4.6244 13.3758C4.39009 13.1415 4.01019 13.1415 3.77587 13.3758L1.37584 15.7757C1.14153 16.0101 1.14152 16.39 1.37583 16.6243C1.61015 16.8586 1.99004 16.8586 2.22436 16.6243L4.62439 14.2243ZM6.42437 16.0243C6.65868 15.79 6.65868 15.4101 6.42437 15.1758C6.19005 14.9414 5.81015 14.9414 5.57584 15.1758L4.37584 16.3758C4.14152 16.6101 4.14152 16.99 4.37584 17.2243C4.61015 17.4586 4.99005 17.4586 5.22437 17.2243L6.42437 16.0243ZM11.4 8.09855C12.2277 8.09855 12.8986 7.42761 12.8986 6.59997C12.8986 5.77233 12.2277 5.10139 11.4 5.10139C10.5724 5.10139 9.90147 5.77233 9.90147 6.59997C9.90147 7.42761 10.5724 8.09855 11.4 8.09855Z" fill="white"/>
</svg>
